<?xml version="1.0" encoding="UTF-8"?>
<svg id="Layer_1" data-name="Layer 1" xmlns="http://www.w3.org/2000/svg" viewBox="0 0 1032.82 404.75">
  <defs>
    <style>
      .cls-1 {
        fill: #b6e989;
      }

      .cls-2 {
        fill: #fff;
      }

      .cls-3 {
        fill: #9d55b5;
      }
    </style>
  </defs>
  <rect class="cls-1" x="33.45" y="266.82" width="358.86" height="75.1"/>
  <rect class="cls-3" x="383.98" y="266.82" width="300.41" height="75.1"/>
  <g>
    <path class="cls-3" d="M826.97,152.22c-21.85,30.3-9.09,78.3,21.82,95.28,2.47,1.35,10.29,3.17,8.97,6.23-1.7,3.94-10.18-1.1-12.41-2.41-31.99-18.77-45.21-66.21-23.74-99.24,4.11-6.33,15.72-19.28,22.57-22.24,3.53-1.52,5.3,1.79,2.87,3.8-7.38,6.11-14.24,10.49-20.08,18.59Z"/>
    <path class="cls-3" d="M806.86,210.3c3.46-.69,5.75,2.38,5.65,5.56-.08,2.56-2.16,2.99-1.08,5.92,2.92,7.87,10.69,18.44,16.5,24.62,1.94,2.06,9.58,7.71,9.14,10.06-1.23,6.6-11.73-5.41-13.24-7.03-6.89-7.41-11.32-14.83-16.17-23.64-.59-1.07-.61-2.59-1.16-3.36-1.24-1.73-6.97-.53-6.44-6.8.18-2.11,2.06-3.4,2.2-4.47.07-.52-1.48-9.42-1.74-10.06-.72-1.78-3.89-1.32-4.72-5.47-.8-3.99,3.07-4.97,3.89-6.39.19-.33-.11-5.93.02-7.29,1.25-13.88,6.32-27.89,15.39-39.33,1.06-1.34,3.22-4.34,4.39-5.22,2.42-1.82,4.99-.35,4.1,2.32-.52,1.57-6.16,7.8-7.72,10.15-4.59,6.89-8.45,16.3-10.15,24.18-.48,2.23-1.84,12.24-1.41,13.86.59,2.25,3.77,1.8,3.99,6.19.16,3.3-2.79,4.62-3.08,6.36-.38,2.29,1.9,7.1,1.65,9.83ZM804.75,193.01c-.79-1.37-2.62-1.79-4.1-.95-1.47.85-2.03,2.65-1.24,4.02s2.62,1.79,4.1.95c1.47-.85,2.03-2.65,1.24-4.02ZM809.06,214.28c-.81-1.41-2.69-1.84-4.21-.97s-2.09,2.72-1.28,4.13,2.69,1.84,4.21.97c1.51-.87,2.09-2.72,1.28-4.13Z"/>
    <path class="cls-1" d="M954.86,292.29c.29-.9,2.81-2.7,3.69-3.79,23.44-28.71,28.84-73.9,6.03-101.83-1.6-1.96-7.4-6.58-7.94-7.81-.7-1.58.56-3.29,2.4-3.46,2.37-.22,8.44,6.7,9.97,8.63,18.38,23.1,19.51,60.69,5.9,87.91-2.2,4.4-12.94,22.62-17,23.77-1.95.55-3.58-1.8-3.05-3.42Z"/>
    <path class="cls-3" d="M807.25,248.24c4.15-3.71,9.12-1.97,10.46,2.87.37,1.33-.55,2.55.24,4.03,8.57,15.96,34.21,30.06,52.67,32.48,5.76.76,24.9,1.21,29.97-.53,2.15-.74,3.19-4.98,8.08-4.38,7.81.94,5.46,12.55-2.42,12.17-3.05-.15-3.68-2.83-5.28-3.33-.66-.2-11.33,1.36-13.53,1.46-30.69,1.42-56.51-10.91-73.03-35.04-1.02-.86-4.72,1.22-6.9-1.01-2.31-2.36-3.15-6.14-.27-8.72ZM814.07,250.63c-.76-1.32-2.52-1.73-3.94-.91s-1.96,2.55-1.2,3.86,2.52,1.73,3.94.91c1.42-.82,1.96-2.55,1.2-3.86ZM910.04,287.16c-.81-1.41-2.7-1.85-4.22-.98-1.52.87-2.09,2.73-1.28,4.14s2.7,1.85,4.22.98,2.09-2.73,1.28-4.14Z"/>
    <path class="cls-1" d="M950.93,133.73c2.49-2.45,7.24,2.24,9.61,3.41,3.54,1.73,7.41,3.4,11.22,4.56,6.96,2.12,23.07,3.7,27.51,8.75,9.23,10.52,13.14,31.3,18.3,44.3.67,1.54,2.72,1.14,3.85,2.11,7.82,6.74-5.56,16.08-9.72,8.02-1.9-3.68.72-4.8,1.25-6.83.62-2.33-11.53-33.69-13.58-37.63-3.81-7.31-6.21-8.73-14.27-10.83-9.45-2.46-16.49-2.71-25.7-7.31-2.33-1.16-11.68-5.39-8.47-8.55ZM1020.19,200.43c-.81-1.42-2.71-1.85-4.23-.98-1.52.88-2.1,2.73-1.29,4.15s2.71,1.85,4.23.98c1.52-.88,2.1-2.73,1.29-4.15Z"/>
    <path class="cls-1" d="M937.81,145.53c.11-1.69.8-1.1-.95-3.29-14.89-18.69-45.99-24.31-69.78-17.87-3.29.89-10.02,4.23-12.2,4.44-1.6.15-2.69-1.28-2.39-2.76.48-2.37,8.36-4.67,10.8-5.47,23.3-7.7,52.1-3.43,70.01,11.31,2.24,1.84,7.92,8.54,9.32,9.23,1.4.7,4.63-1.26,6.82,2.53,4.37,7.55-12.51,15.47-11.63,1.89ZM946.29,145.54c-.79-1.37-2.62-1.79-4.09-.94s-2.03,2.64-1.24,4.01,2.62,1.79,4.09.94,2.03-2.64,1.24-4.01Z"/>
    <path class="cls-3" d="M802.06,231.63c2.81.54,4.51,3.14,4.46,5.85-.1,4.98-4.98,4.56-6.38,6.92-.71,1.19-.99,10.42-.81,12.19,2.24,21.51,19.01,41.29,38.94,49.6,1.89.79,13.67,3.09,7.99,6.36-2.38,1.37-6.73-.51-9.08-1.4-23.15-8.7-44.49-34.92-42.88-60.15.14-2.25,1.69-6.92,1.42-8.51s-1.37-2.67-1.55-4.34c-.4-3.73,4.3-7.22,7.88-6.53ZM803.1,236.06c-.79-1.38-2.63-1.8-4.11-.95-1.48.85-2.04,2.66-1.25,4.03s2.63,1.8,4.11.95,2.04-2.66,1.25-4.03Z"/>
    <path class="cls-3" d="M925.06,289.39c1.38-2.77-.56-5.7,5.3-6.76,8.53-1.54,10.02,9.61,1.29,11.86-1.48.38-3.08-1.18-4.84-.48-1.56.62-3.72,2.9-5.71,4.01-9.05,5.08-19.16,6.1-28.53,9.08-5.74,1.83-11.93,5.47-17.74,7.77-4.97,1.96-32.73,10.85-36.08,8.75-6.99-4.4,8.27-5.52,10.42-5.99,15.94-3.47,26.33-9.24,41.06-14.61,7.11-2.59,31.6-7.11,34.84-13.64ZM933.99,286.82c-.79-1.38-2.64-1.81-4.12-.95s-2.05,2.66-1.25,4.04c.79,1.38,2.64,1.81,4.12.95,1.48-.85,2.05-2.66,1.25-4.04Z"/>
    <path class="cls-3" d="M836.06,263.53c.04-.58,2.12-2.27,3.02-2.23.77.04,10.15,7.05,12.35,8.23,17.19,9.2,38.5,9.33,57.95,3.65,1.94-.57,8.24-2.49,9.59-3.3,1.55-.92.87-4.25,5.7-5.31,8.4-1.85,10.31,9.78,1.23,12.03-3.38.84-4.39-2.1-5.62-2.24-.8-.09-8.58,2.97-10.56,3.51-18.85,5.18-38.91,5.81-56.25-1.85-3.37-1.49-17.68-8.98-17.42-12.48ZM928.27,268.93c-.78-1.36-2.6-1.78-4.06-.94-1.46.84-2.01,2.62-1.23,3.98.78,1.36,2.6,1.78,4.06.94,1.46-.84,2.01-2.62,1.23-3.98Z"/>
    <path class="cls-1" d="M992.51,226.85c-3.24-.77-5.1-4.77-3.68-7.84.56-1.21,2.32-2.57,2.26-3.11-.3-2.75-2.85-9.84-3.9-12.74-4.28-11.76-11.17-25.91-19.5-35.27-1.6-1.8-5.33.04-7.58-3.24-1.99-2.91-.11-5.13-.74-6.21-.83-1.41-4.73-2.67-5.23-4.45-.19-.69.45-2.75,1.24-3.13,3.03-1.45,5.63,3.45,7.72,4.25,1.89.73,4.82-1.14,7.14,1.74,2.86,3.55.15,5.64.64,7.12.69,2.07,7.37,9.61,9.1,12.33,3.93,6.19,7.8,14.15,10.51,20.99,1.81,4.57,3.31,13.73,5.16,17.09.56,1.02,2.85,1.32,3.84,2.43,3.8,4.29-.96,11.47-6.98,10.05ZM968.06,159.44c-.8-1.39-2.66-1.82-4.15-.96-1.49.86-2.06,2.68-1.26,4.07s2.66,1.82,4.15.96c1.49-.86,2.06-2.68,1.26-4.07ZM997.3,219.49c-.81-1.41-2.69-1.84-4.21-.97s-2.09,2.72-1.28,4.13,2.69,1.84,4.21.97,2.09-2.72,1.28-4.13Z"/>
    <path class="cls-3" d="M768.4,165.42c1.34-1.36,3.28-1.67,4.35-.14.93,1.33-2.74,12.34-3.28,14.99-3.18,15.71-2.65,32.57.52,47.87.65,3.13,2.47,12.35,3.81,14.59.6,1,2.58.77,3.7,1.93,7.73,7.97-7.92,15.8-10.03,6.36-.89-3.99,1.99-4.84,1.82-6.67-6.41-18.02-8.48-37.3-6-56.66.44-3.44,3.32-20.45,5.1-22.27ZM776.09,248.04c-.76-1.32-2.52-1.73-3.94-.91s-1.96,2.55-1.2,3.86,2.52,1.73,3.94.91,1.96-2.55,1.2-3.86Z"/>
    <path class="cls-3" d="M765.5,150.83c-.03,1.58,2.2,2.92,1.3,6.27-1.14,4.26-4.46,3.73-5.38,5.35-1.57,2.78-3.52,13.19-4.14,16.77-1.01,5.75-1.55,11.49-1.77,17.27-.86,2-4.2,2.92-5.06.65-.94-2.47,1.38-16.88,2.09-20.34.56-2.76,4.25-13.82,4.16-14.98-.17-2.34-4.08-3.75-1.45-8.27,1.97-3.38,5.24-3.03,6.24-4.28.35-.43.58-2.01,1.04-2.88,5.54-10.37,11.71-21.11,19.91-29.89,1.17-1.25,3.66-4.45,5.09-4.85,1.73-.49,3.14.97,2.87,2.71-.16,1.03-11.67,14.11-13.54,16.77-1.56,2.21-11.35,18.41-11.38,19.7ZM761.96,152.88c-2.93-.67-7.13,3.72-2.44,5.7,3.97,1.68,6.41-4.79,2.44-5.7Z"/>
    <path class="cls-3" d="M854.95,338.83c1.73-1.72,11.64-2.5,14.79-3.17,27.59-5.88,53.67-17.72,75.67-35.88,5.52.11,3.39,3.58.35,6.11-20.87,17.39-57.58,32.9-84.32,36.2-1.12.14-5.4.73-6,.43-1.34-.66-1.58-2.6-.48-3.7Z"/>
    <path class="cls-3" d="M819.9,275.96c.49.26,4.04-.25,5.34.94,3.08,2.81,1.48,5.07,2.12,6.89.96,2.73,23.66,15.36,26.72,15.07,2.09-.2,4.42-2.43,7.35-1.88,1.96.37,2.75,2.32,4.67,2.4,3.44.15,11.12-4.49,12.79-.57,2,4.69-10.5,3.88-12.86,5.18-1.75.97-1.02,4.05-6.48,4.87-5.04.76-4.29-3.72-6.88-5.46-.75-.5-4.34-1.33-5.71-1.94-5.84-2.62-11.37-5.4-16.61-8.99-1.18-.81-6.2-5.42-6.63-5.52-1.25-.3-4.12,2.03-6.41-.36-3.53-3.69-.93-5.26-1.71-7.68-.97-2.99-10.18-11.31-5.28-13.6.87-.41,1.98-.26,2.64.34,1.66,1.52,5.65,9.6,6.96,10.3ZM823.83,280.29c-.76-1.32-2.52-1.73-3.94-.91s-1.96,2.55-1.2,3.86c.76,1.32,2.52,1.73,3.94.91s1.96-2.55,1.2-3.86ZM857.52,301.42c-1.86,1.89.34,5.36,3.06,4.23,4.33-1.79,1.16-8.52-3.06-4.23Z"/>
    <path class="cls-1" d="M814.41,82.55l-1.8-4.39c19.91-11.3,40.7-18.88,63.06-22.32,4.18-.64,27.72-3.22,29.77-1.4,1.6,1.42,1.55,3.95-.94,4.54-2.37.56-9.49-.22-12.65-.03-27.41,1.66-53.19,9.66-77.44,23.6Z"/>
    <path class="cls-3" d="M812.61,78.15l1.8,4.39c-23.76,13.66-42.16,30.63-55.99,53.61-1.38,2.29-6.91,16.57-10.08,10.47-.65-1.25,1.39-4.68,2.06-6.13,12.03-25.7,37.23-48.16,62.21-62.34Z"/>
    <path class="cls-3" d="M951.56,310.99l1.8,4.39c-8.41,6.52-19.02,13.56-28.49,18.44-4.27,2.2-20.05,7.71-22.17,9.49-.58.48-1.12,3.06-2.36,4.26-3.6,3.48-7.31,2.28-10.32-.6-2.65.47-14.62,4.02-16.09,2.76-.65-.55-1.43-1.91-1-2.75,1.35-2.64,11.8-2.71,14.9-4.15,2.83-1.31,3.28-4,6.99-5.2,2.93-.94,5.15,1.64,6.84,1.22,3.16-.78,10.7-4.34,14-5.88,12.15-5.7,25.34-13.71,35.9-21.99ZM898.57,341.99c-.82-1.42-2.73-1.87-4.26-.98s-2.11,2.75-1.29,4.18c.82,1.42,2.73,1.87,4.26.98,1.53-.88,2.11-2.75,1.29-4.18Z"/>
    <path class="cls-1" d="M832.72,109.33c10.84-6.2,23.53-11.27,35.65-13.89,3.49-.75,11.82-1.17,14.24-2.16,1.9-.78,2.11-3.04,5.74-4.06,4.67-1.32,5.27,2.47,7.6,3.1,2.62.71,10.48-1.01,13.93-.23.98.22,1.88.74,2.15,1.71,1.54,5.63-14.25,1.34-17.02,3.58-1.92,1.55-.17,2.81-4.86,3.51-5.51.82-5.49-2.93-6.81-3.07-1.49-.16-6.97.93-8.86,1.27-13.29,2.38-28.2,7.69-39.94,14.65l-1.8-4.39ZM891.87,93.56c-.8-1.39-2.66-1.82-4.15-.96-1.49.86-2.06,2.68-1.26,4.07s2.66,1.82,4.15.96,2.06-2.68,1.26-4.07Z"/>
    <path class="cls-1" d="M1018.52,256.36c3.15-2.46,5.12-.26,3.9,2.69-1.46,3.5-9.96,13.79-12.86,17.37-10.67,13.19-23.33,26.34-36.73,37.06-2.37,1.89-8.26,7.88-10.87,5.31-2.47-2.44,3.22-5.2,4.59-6.31,14.81-12.02,27.41-24.42,39.26-39.12,2.82-3.5,10.24-15.05,12.71-16.98Z"/>
    <path class="cls-3" d="M801.14,148.68c4.3,1.05-1.29,8.73-2.37,11.39-7.51,18.39-8.21,38.45-3.9,57.02.59,2.54,4.07,9.86,2.31,11.62-3.46,3.45-5.68-3.61-6.36-5.92-5.38-18.17-4.8-44.27,2.49-62.65.97-2.44,4.9-12.17,7.84-11.45Z"/>
    <path class="cls-1" d="M871.75,86.72c-1.98-.47-2.31-3.27-.24-4.48,2.55-1.49,17.5-2.82,21.29-3.05,16.07-.97,35.1,1.03,50.19,5.41,1.77.51,8.87,2.54,9.85,3.18,2.33,1.52.93,4.74-1.85,4.48-18.47-6.11-38.28-9.52-58.33-8.24-3.49.22-19.73,2.97-20.9,2.7Z"/>
    <path class="cls-3" d="M783.18,224.78c-.1.71,2.84,11.4,3.2,13.78.89,5.91.28,30.24,3.11,32.83,1.63,1.49,5.17.1,5.75,5.03.9,7.62-10.89,10.01-12.45,1.99-.49-2.55,1.94-3.86,1.93-4.96,0-1.46-1.34-4.84-1.59-6.89-.92-7.33-.7-35.31-4.7-39.35-.89-.89-3.01-1.05-4.21-2.56-6.13-7.73,9.45-14.3,11.18-5.32.53,2.77-2.09,4.59-2.22,5.46ZM781.85,219.16c-.79-1.38-2.64-1.81-4.13-.95-1.49.85-2.05,2.66-1.25,4.04s2.64,1.81,4.13.95,2.05-2.66,1.25-4.04ZM791.71,276.02c-.79-1.38-2.64-1.81-4.13-.95-1.49.85-2.05,2.67-1.25,4.05s2.64,1.81,4.13.95,2.05-2.67,1.25-4.05Z"/>
    <path class="cls-3" d="M832.72,109.33l1.8,4.39c-5.63,3.34-15.52,10.04-19.78,15.11-.44.52-2.64,3.8-2.64,4.03-.03.97,1.6,2.78,1.57,5.01-.07,4.08-5.34,8.06-9.06,6.21-2.76-1.37-2.64-4.23-3.69-6.28-14.38,17.29-20.66,35.21-21.55,56.7-.1,2.44,1.55,14.16-1.79,14.28-.13,0-2.01-1.12-2.12-1.25-1.5-1.68-1.24-11.75-1.12-14.64.6-14.65,4.94-30.33,12.39-43.56,1.43-2.55,7.71-12.61,9.66-13.73,2.47-1.41,3.57.31,4.53,2.19,1-1.2.78-2.51,2.77-4.04,1.36-1.05,2.8-1.11,3.58-1.77.65-.55,1.95-3.81,2.94-5.09,4.81-6.21,15.55-13.58,22.53-17.57ZM810.06,136.59c-.78-1.36-2.59-1.78-4.05-.94s-2.01,2.62-1.23,3.97,2.59,1.78,4.05.94,2.01-2.62,1.23-3.97Z"/>
    <path class="cls-1" d="M936.99,97.42c.29.16,5.68.41,6.79.63,7.79,1.55,15.05,3.93,22.07,7.39,2.2,1.09,7.75,5.12,9.11,5.55,1.42.45,4-1.14,6.67.31,6.67,3.63.69,13.47-6.07,10.88-4.67-1.79-2.66-4.67-3.71-7.06-1.14-2.61-15.23-8.4-18.67-9.59-1.24-.43-3.68-1.27-4.9-1.6-1.92-.52-10.53-2.47-11.95-2.29-2.13.27-4.79,5.32-9.33,2.6-6.42-3.85-.99-12.88,5.66-11,3.32.94,3.03,3.45,4.35,4.18ZM932.94,97.35c-.8-1.39-2.65-1.81-4.14-.96-1.49.86-2.05,2.67-1.26,4.06s2.65,1.81,4.14.96c1.49-.86,2.05-2.67,1.26-4.06ZM980.95,114.93c-.82-1.43-2.73-1.87-4.27-.99-1.54.88-2.12,2.76-1.3,4.19s2.73,1.87,4.27.99,2.12-2.76,1.3-4.19Z"/>
    <path class="cls-3" d="M808.4,67.01l1.8,4.39c-4.39,2.68-9.12,4.94-13.43,7.73-16.01,10.36-30.24,24.32-41.89,39-1.97,1.36-4.34-.3-4.21-2.34.06-1.02,8.74-11.09,10.22-12.67,13.31-14.28,30.2-26.83,47.52-36.11Z"/>
    <path class="cls-3" d="M812.54,106.21c3.43-2.32,8.06-5.86,7.17.77-16.71,10.97-30.29,24.94-39.51,42.16-1.41,2.62-3.26,9.27-5.94,9.95-6.32,1.61,1.42-11.78,2.54-13.83,8.24-15.04,21.18-29.21,35.74-39.05Z"/>
    <path class="cls-1" d="M927.68,67.75c3.86,7.46-8.94,4.09-13.15,3.9-12.18-.54-25.04.22-37.22,2.24-6.45,1.07-12.76,2.58-19.16,3.94-4.52-3.81.17-4.87,3.99-5.93,6.17-1.71,14.57-2.84,20.97-3.65,14.88-1.86,29.9-2.06,44.57-.5Z"/>
    <path class="cls-3" d="M889.9,320.81c-.69.02-10.61,4.83-12.8,5.64-8.34,3.11-24.23,8.05-32.8,8.35-2.38.08-5.67-1.1-3.82-3.72,1.19-1.68,7.72-1.77,10.18-2.27,9.93-2.02,27.27-6.1,35.93-11.02,2.59-1.47.73-5.43,5.78-7.22,7.56-2.69,11.46,7.97,3.83,11.09-3.45,1.41-5.15-.88-6.3-.85ZM896.88,314.58c-.8-1.39-2.66-1.82-4.15-.96-1.5.86-2.06,2.68-1.26,4.07s2.66,1.82,4.15.96c1.5-.86,2.06-2.68,1.26-4.07Z"/>
    <path class="cls-3" d="M793.52,286.6c3.01-2.85,7.24,5.21,8.92,7.15,3.09,3.59,17.57,19.39,21.26,20.18,2.15.46,4.84-1.8,7.05.52,5.27,5.51-1.34,13.69-7.29,10.43-4.49-2.46-1.98-5.08-3.24-7.12-1.02-1.64-9.49-7.58-11.81-9.8-4.35-4.16-8.88-8.95-12.42-13.78-1.43-1.95-4.83-5.34-2.47-7.58ZM829.32,317.92c-.78-1.36-2.6-1.78-4.06-.94s-2.02,2.62-1.23,3.98,2.6,1.78,4.06.94,2.02-2.62,1.23-3.98Z"/>
    <path class="cls-1" d="M948.73,221.9c-.32.57-.93,10.71-1.33,12.74-1.06,5.38-7.22,23.9-11.62,26.89-1.82,1.24-4.02-.1-3.7-2.12,3.98-6.94,7.47-13.62,9.37-21.28.63-2.54,2.8-14.49,2.38-16.29-.4-1.71-5.03-2.72-3.09-7.75,2.52-6.56,13.47-4.81,11.83,2.73-.74,3.4-2.94,3.48-3.84,5.08ZM949.36,214.31c-.81-1.4-2.69-1.84-4.2-.97s-2.08,2.71-1.27,4.12c.81,1.4,2.69,1.84,4.2.97s2.08-2.71,1.27-4.12Z"/>
    <path class="cls-1" d="M1001.57,268.16c-.44,2.08,2.68,4.88-1.13,7.91-7.84,6.23-15.46-4.6-6.63-9.09,1.4-.71,3.48-.75,4.06-1.24,2.38-1.97,9.71-13.46,11.72-16.73,1.8-2.93,3.47-5.97,5.06-9,1.16-2.23,2.62-7.73,4.62-8.65s3.95,1.02,3.66,3.05c-.19,1.35-5.64,11.03-6.78,13.02-1.45,2.52-3.06,5.35-4.66,7.77-1.48,2.23-9.75,12.19-9.92,12.97ZM998.7,270.49c-.78-1.36-2.61-1.78-4.07-.94s-2.02,2.63-1.24,3.99,2.61,1.78,4.07.94c1.47-.84,2.02-2.63,1.24-3.99Z"/>
    <path class="cls-1" d="M880.08,45.98c-.32,1-1.39,1.59-2.37,1.95-3.39,1.23-10.26,1.62-14.38,2.63-12.75,3.1-25.13,8-37.05,13.65-3.77-1.8-2.7-4.14.82-5.91,11-5.55,28.32-11.35,40.33-13.7,2.44-.48,14.21-3.51,12.65,1.39Z"/>
    <path class="cls-1" d="M954.65,185.99c2.93.7,4.95,3.76,4.46,6.71-.16.99-1.3,1.98-1.16,2.49.28.99,4.47,6.19,5.54,8.24,1.79,3.44,7.81,20.39,6.63,23.64-.44,1.22-2.82,2.27-3.54,1.93-1.27-.62-3.43-12.28-4.32-14.8-.96-2.73-6.52-15.77-8.3-16.54-.85-.37-2.59.96-4.41-.32-5.95-4.2-1.65-12.96,5.09-11.34ZM955.39,190.42c-.76-1.32-2.52-1.73-3.94-.91s-1.96,2.55-1.2,3.86,2.52,1.73,3.94.91,1.96-2.55,1.2-3.86Z"/>
    <path class="cls-3" d="M915.15,245.1c1.89.55,3.53,4.19,1.83,5.73-1.96,1.77-8.83,4.01-11.67,4.9-9.46,2.96-29.55,5.29-38.57,2.23-2.87-.97-3.23-4.35-.24-5.15,1.04-.28,10.91,1.57,13.5,1.66,9.21.31,19.89-1.44,28.62-5.03,3.06-1.26,4.95-1.61,6.53-4.34Z"/>
    <path class="cls-1" d="M935.33,114.02c-.02.31-1.56,1.73-2.04,1.95-1.08.49-18.64-4.5-21.91-5.03-4.65-.76-10.59-1.31-15.36-1.38-2.72-.04-11.38,1.03-12.82.64-3.22-.87-2.89-4.48.26-5.34,2.81.59,6.23-.6,8.79-.59,10.35.02,27.32,2.74,36.96,5.89,1.79.58,6.28,1.73,6.12,3.86Z"/>
    <path class="cls-1" d="M1005.08,238.68c-.41-.1-1.11-.58-1.33-.91-1.05-1.54,1.26-8.32,1.45-10.99.58-8.11-2.1-18.5-4.3-26.2-.64-2.25-4.42-10.26-3.01-11.76,3.46-3.69,4.83,1.27,5.7,3.54,4.04,10.59,8.6,28.8,5.83,40.25-.52,2.14-1.24,6.78-4.33,6.07Z"/>
    <path class="cls-3" d="M955.17,322.65c6.18,1.3-5.07,8.74-6.87,9.91-6.02,3.92-14.48,8.75-20.9,12.01-2.27,1.15-15.38,6.95-16.83,6.28-.85-.39-1.85-2.1-1.38-3.01.92-1.79,14.07-6.52,16.96-7.98,5.93-3.01,13.02-7.21,18.7-10.75,2.31-1.44,8.02-6.95,10.31-6.46Z"/>
    <path class="cls-1" d="M939.83,272.46c.3-1.02,3.57-4.69,4.46-6.26,6.53-11.41,10.28-24.04,10.25-36.76,5.97-5.84,4.97,4.28,4.64,7.92-.85,9.22-4.95,20.85-9.58,29.18-.87,1.57-4.38,7.74-5.37,8.53-2.54,2.02-5.13-.16-4.41-2.61Z"/>
    <path class="cls-1" d="M947.31,114.78c.7-.76,1.87-1.36,2.91-1.11.95.23,8.66,6.75,11.01,8.13,6.27,3.68,14.98,6.68,22.07,8.83,2.28.69,7.57,1.03,8.64,2.82,3.47,5.84-10.9,1.64-12.99,1.04-9.21-2.66-20.62-7.56-27.84-13.5-1.47-1.21-5.85-4-3.8-6.22Z"/>
    <path class="cls-1" d="M968.83,233.41c2.71.62,1.81,6.04,1.62,8.33-.75,9.04-4.49,21.07-8.73,29.38-1.09,2.13-6.04,12.98-8.73,8.19-1.31-2.34,3.25-7.94,4.48-10.5,3.16-6.56,5.66-13.46,6.94-20.5.5-2.73.79-12.1,1.41-13.4.53-1.1,1.82-1.77,3.01-1.5Z"/>
    <path class="cls-1" d="M953.36,315.38l-1.8-4.39c2.64-2.07,5.27-4.57,7.76-6.83,2.75-2.5,12.03-11.14,13.55-13.67,1.04-1.73-1.37-5.36,2.75-8.25,6.19-4.34,13.35,4.09,7.26,9.25-2.99,2.53-4.79.79-6.65,1.94-1.98,1.23-9.34,10.15-12.11,12.72-3.4,3.16-7.09,6.39-10.76,9.23ZM981.73,285.47c-.79-1.38-2.64-1.81-4.12-.95-1.48.85-2.04,2.66-1.25,4.04s2.64,1.81,4.12.95c1.48-.85,2.04-2.66,1.25-4.04Z"/>
    <path class="cls-3" d="M856.67,261.85c1.79-1.65,10.16,2.07,13.02,2.62,5.96,1.15,14.43,1.22,20.6.47,2.5-.31,12.08-2.88,13.22-1.82,4.21,3.93-7.42,5.95-10.12,6.36-6.32.96-16.79.96-23.01.02-2.35-.36-18.55-3.17-13.72-7.64Z"/>
    <path class="cls-3" d="M807.48,53.97l1.25,4.71c-10.21,5.2-19.75,11.96-28.47,19.29-2.16,1.82-7.09,8.02-9.71,7.13-2.95-1.01-1.24-3.34.15-4.91,8.59-9.73,25.17-20.24,36.77-26.21Z"/>
    <path class="cls-3" d="M943.41,290.03l1.59,5.74c-.92-.18-1.65-.97-2.73-.43-1.69.84-4.63,3.91-6.58,5.13-5.62,3.53-13.86,8.55-19.76,11.26-1.29.59-8.56,3.12-9.54,3.15-1.54.05-3.39-1.8-2.66-3.22s11.75-5.21,14.23-6.45c4.17-2.08,19.47-10.57,21.77-13.53.72-.94.67-3.3,1.69-4.69l2,3.05Z"/>
    <path class="cls-1" d="M815.18,90.24c4.25-2.48,8.76-4.74,13.19-6.9,2.55-1.24,7.3-2.55,9.4-3.99,2.75-1.88,2.81-8.9,10.11-6.6,6.98,2.2,4.04,12.75-3.72,12-1.72-.17-2.77-1.7-3.68-1.6-1.88.22-13.09,5.64-15.56,6.91-2.52,1.29-4.95,2.85-7.4,4.25l-2.34-4.08ZM848.3,76.97c-.8-1.39-2.65-1.82-4.15-.96-1.49.86-2.06,2.68-1.26,4.07s2.65,1.82,4.15.96,2.06-2.68,1.26-4.07Z"/>
    <path class="cls-1" d="M808.72,58.68l-1.25-4.71c5.54-2.85,33.07-13.88,37.83-12.21,1.5.53,2.38,1.95,1.05,3.28-1.97,1.97-13.15,4.08-16.77,5.24-6.96,2.24-14.33,5.06-20.86,8.39Z"/>
    <path class="cls-1" d="M862.91,84.68c1.51.31,2.19,2.74,1.16,3.84-1.25,1.33-16.32,4.9-19.84,6.26-3.36,1.3-7.13,2.9-10.39,4.43-2.21,1.03-5.76,4.22-7.84,3.41-6.8-2.65,9.32-9.27,11.79-10.35,3.7-1.62,8.32-3.29,12.17-4.48,1.9-.59,11.84-3.33,12.96-3.1Z"/>
    <path class="cls-1" d="M990.5,241.95c4.61-4.14,11.14-1.86,10.76,3.81-.32,4.81-4.29,4.14-6.56,6.88-2.42,2.92-4.38,11.92-7.39,15.98-2.19,2.97-5.72,1.87-4.8-1.56,1.04-3.87,6.77-11.08,7.6-15.49.51-2.75-3.56-6.08.39-9.63ZM997.68,244.11c-.79-1.38-2.64-1.81-4.12-.95s-2.04,2.66-1.25,4.04c.79,1.38,2.64,1.81,4.12.95,1.48-.85,2.04-2.66,1.25-4.04Z"/>
    <path class="cls-1" d="M991.07,173.98c-.62-.92-3.28-4.65-3.82-5.14-1.21-1.09-3.57.35-5.74-1.88-6.54-6.73,5.74-14.75,9.91-7.44,1.34,2.35-.43,5.28-.08,6.12,1.9,4.6,8.18,10.17,9.22,14.95.52,2.41-3.4,3.99-3.93,3.07-1.8-3.14-3.57-6.74-5.57-9.69ZM988.27,161c-.78-1.36-2.61-1.79-4.08-.94s-2.02,2.63-1.24,4,2.61,1.79,4.08.94,2.02-2.63,1.24-4Z"/>
    <path class="cls-1" d="M975.3,322.44c2.32-1.9,1.2-4.86,3.48-6.71,8.45-6.83,14.59,5.06,7.48,9.24-3.59,2.12-6.19-.37-6.84-.18-2.38.71-4.94,4.08-7.07,5.36-.73.44-4.93,2.19-5.56,2.25-2.58.27-2.89-3.43-1.92-3.98,2.9-1.67,8.11-4.1,10.43-5.99ZM985.74,318.14c-.76-1.32-2.52-1.73-3.94-.91s-1.96,2.55-1.2,3.86c.76,1.32,2.52,1.73,3.94.91,1.42-.82,1.96-2.55,1.2-3.86Z"/>
    <path class="cls-1" d="M916.98,250.83c1.7-1.54.05-5.18-1.83-5.73,1.33-2.3.71-3.05,4.32-4.48,4.86-1.93,4.48,3.98,9.11-2.81,2.03-2.99,2.74-10.71,7.19-9.01,2.25.85.88,3.17.23,4.98-2.05,5.63-6.61,10.16-9.71,15-2.55,3.99-5.53,4.22-9.3,2.05ZM923.65,244.62c-.79-1.38-2.64-1.8-4.12-.95-1.48.85-2.04,2.66-1.25,4.04s2.64,1.8,4.12.95c1.48-.85,2.04-2.66,1.25-4.04Z"/>
    <path class="cls-3" d="M817.53,94.32c-2.56,1.46-8.72,4.52-10.24,6.59-.47.64-.22,2.19-.82,3.46-5.16,10.84-20.05-3.21-6.52-7.89,3.06-1.06,4.09.82,4.33.75,1.99-.53,8.27-5.45,10.9-6.99l2.34,4.08ZM803.49,100.69c-.79-1.38-2.64-1.8-4.12-.95s-2.04,2.66-1.25,4.04,2.64,1.8,4.12.95c1.48-.85,2.04-2.66,1.25-4.04Z"/>
    <path class="cls-1" d="M874.14,106.65c1.01.51,1.59,2.8.86,3.83-.96,1.36-8.94,2.5-11.4,3.26-2.93.9-12.99,5.53-14.61,4.95-3.14-1.13-1.35-3.8,1.1-5.12,2.6-1.4,22.39-7.75,24.04-6.92Z"/>
    <path class="cls-3" d="M841.88,119.07c.74.37,1.38,2.12,1.12,3.02-.69,2.35-5.4,3.44-6.04,4.57-.29.51.69,3.92-2.08,6.37-6.91,6.15-14.5-3.74-8.23-8.57,3.65-2.81,5.64-.55,7.36-1.07,1.15-.35,6.06-5.22,7.86-4.33ZM833.3,127.35c-.8-1.4-2.67-1.83-4.17-.96-1.5.86-2.07,2.69-1.27,4.09s2.67,1.83,4.17.96c1.5-.86,2.07-2.69,1.27-4.09Z"/>
    <path class="cls-1" d="M989.32,307.77c.77-2.44,11.66-10.78,13.1-14.44,2.18-2.69,7.01-1.05,5.12,2.08-4.02,3.25-10.57,13.34-14.96,15.09-2.07.82-3.86-.82-3.25-2.72Z"/>
    <path class="cls-3" d="M938.54,343.58l17.56-10.09c.94-.54,4.38,1.68,2.57,4.13-1.17,1.58-8.19,5.4-10.36,6.49-3.4,1.71-10.56,5.91-9.76-.53Z"/>
    <path class="cls-1" d="M942.67,158.83c1.3-1.09,3.6-.01,4.5,1.09,1.65,2.01,5.99,8.14,6.72,10.34.81,2.46-3.14,3.92-4.68,1.99-.64-2.95-9.86-10.64-6.54-13.42Z"/>
    <path class="cls-1" d="M935.53,119.63c2.35.32,14.51,7.09,9.96,10.19-2.79,1.91-10.01-5.66-13.26-6.29-1.56-1.9.86-4.24,3.29-3.91Z"/>
    <path class="cls-1" d="M945,295.77l-1.59-5.74c-.03,1.56,1.26,2.76,2.88,2.69,1.62-.07,2.95-1.39,2.98-2.95.03-1.56-1.26-2.76-2.88-2.69-1.62.07-2.95,1.39-2.98,2.95l-2-3.05c6.58-8.94,17.71,4.51,5.54,9.01-1.29.48-1.32-.1-1.94-.23Z"/>
    <path class="cls-3" d="M909.93,261.8c1.35-1.38,9.24-4.76,10.91-3.68,4.92,3.18-6.24,7.27-9.09,7.41-2.43.12-3.4-2.11-1.82-3.72Z"/>
    <path class="cls-1" d="M1020.22,216c2.51.01,4.06,9.14-.94,9.6-3.51.33-3.48-9.62.94-9.6Z"/>
    <path class="cls-1" d="M810.2,71.4l-1.8-4.39c2.06-1.1,5.93-4.37,7.36-1.22,1.22,2.7-3.62,4.42-5.57,5.61Z"/>
    <path class="cls-1" d="M1010.35,284.77c-.03-.13,1.13-2.47,1.24-2.57,5.22-5.1,7.65,3.63,2.68,4.59-.88.17-3.79-1.38-3.91-2.02Z"/>
  </g>
  <g>
    <path class="cls-3" d="M843.57,151.88c1.35-.29,2.45-.65,3.86-.47,4.12.53,6.96,4.69,6.02,8.74l7.3,3.99,3.46-1.99-2.44-4.25c-.16-.27-.59-1.8-.71-2.24-1.77-6.24.38-12.81,5.37-16.92l3.64-2.09c.91-.13,1.77-.65,2.66-.92,6.07-1.82,12.08-.3,15.96,4.87,10.22-5.49,21.47,3.25,23.1,13.66,12.08.55,20.66,15.48,15.06,26.2,8.17,6.65,10.07,20.75.18,26.83,2.34,5.59,1.01,11.42-3.24,15.66-5.18,5.17-11.97,7.22-18.75,4.1-1.9-.87-5.47-3.44-6.5-5.21l-2.44-4.25-3.46,1.99-.26,8.21c4.91,1.63,6.95,8.02,3.33,11.87-5.27,5.59-14.29.61-12.49-6.59.75-3,3.22-4.81,6.09-5.6l.22-8.94c0-.24.25-.99.39-1.07l4.59-2.64-3.98-6.93-8.32,4.78,2.64,4.59c.22.38-1.11,7.69-1.05,8.79-.59,1.65-2.84,1.45-3.17-.27-.12-1,1.14-7.45.95-7.79l-2.14-3.73-3.38,1.94-1.36,9.01c.63.75,1.64,1,2.41,1.72,4.95,4.66,1.69,12.82-5.07,12.83-4.62,0-8.1-4.5-7.09-9,.72-3.23,3.45-5.19,6.57-5.83l1.38-10.03c.05-.17.26-.73.36-.78l15.68-9.01-1.59-2.77-7.71,4.43c-.1.06-1.41.19-1.66.18-1.61-.03-3.34-.94-4.11-2.4l-8.32,4.78,2.64,4.59c.16.28-.31,6.06-.43,6.47-.49,1.67-2.64,1.72-3.17.03-.28-.91.55-5.39.33-5.77l-2.14-3.73-3.38,1.94-.95,6.92c3.34,1.47,5.46,4.48,4.91,8.2-.87,5.98-8.53,8.41-12.63,3.97s-1.47-11.55,4.54-12.45c.52-2.86.43-5.98,1.32-8.72l15.68-9.01-2.39-4.16-18.19,10.46c2.64,8.56-8.02,14.23-13.88,7.52-.32-.7-.91-1.39-1.2-2.08-.6-1.46-.57-4.15-.02-5.64,2.14-5.74,9.5-7.14,13.5-2.57l18.19-10.46-2.39-4.16-15.68,9.01c-2.81-.61-5.46-2.25-8.2-3.25-4.02,4.95-11.88,2.9-12.66-3.55-.24-1.98.69-4.71,2.27-5.97,5.48-4.4,12.49-.12,11.74,6.65l6.46,2.66,3.38-1.94-2.14-3.73c-.22-.39-4.51-1.92-5.15-2.62-1.2-1.31-.07-3.14,1.62-2.72.41.1,5.65,2.61,5.81,2.89l2.64,4.59,8.32-4.78c-.87-1.4-.78-3.35,0-4.76.12-.22.89-1.28.99-1.34l7.71-4.43-1.59-2.77-15.68,9.01c-.09.05-.68-.04-.85-.09l-9.36-3.85c-1.11.99-1.84,1.83-3.28,2.41-6.57,2.68-12.8-5.13-8.59-10.88,3.71-5.06,11.38-3.6,12.91,2.46.28,1.11,0,2.11.32,3.11l8.47,3.36,3.38-1.94-2.14-3.73c-.2-.34-6.41-2.49-7.21-3.1-1.32-1.15-.36-3.19,1.36-2.87.92.6,7.9,3.13,8.13,3.52l2.64,4.59,8.32-4.78-3.98-6.93-4.59,2.64c-.14.08-.91-.07-1.12-.2l-7.84-4.31c-2.36,2.36-5.52,3.43-8.68,2.08-5.07-2.15-5.73-9.21-1.4-12.45l1.39-.8ZM849.93,156.53c-1.1-1.92-3.55-2.58-5.47-1.48-1.92,1.1-2.58,3.55-1.47,5.47s3.55,2.58,5.47,1.48c1.92-1.1,2.58-3.55,1.47-5.47ZM864.65,156.48l11.11,19.32,7.71-4.43c1.13-.65,4.67.31,5.32,1.44l4.43,7.71,4.07-2.34c.44-.25,2.03-3.4,2.26-4.07,1-2.95.64-5.84-.35-8.73-.38-1.12-1.5-2.3.19-3.18,1.82-.95,2.63,1.58,3.1,2.89.86,2.4.97,5,.68,7.5l-1.49,5.01c3.6.29,7.2,1.61,9.86,4.13,1.2,1.14,4.6,4.47,1.86,5.61-1.45.61-1.83-.82-2.5-1.61-2-2.31-4.32-4.08-7.37-4.7-.69-.14-4.22-.35-4.66-.1l-4.07,2.34,4.43,7.71c.65,1.13-.31,4.67-1.44,5.32l-7.71,4.43,11.11,19.32c1.1,1.91,5.17,4.35,7.31,4.92,8.21,2.17,18.78-6.35,16.06-15-1.64-5.22-6.34-9.38-11.87-9.74-1.72-.11-5.03,1.16-4.93-1.52.05-1.42,1.63-1.47,2.7-1.58,2.77-.3,6.58.52,9.01,1.86,2.37,1.31,4.22,3.23,5.87,5.35,8.05-4.33,5.8-16.07-.2-21.21-.49-.05-3.43,5-5.11,2.35-.99-1.57.77-2.35,1.66-3.36,9.04-10.31-.3-26.83-13.48-24.36-1.5.28-4.1,1.75-4.39-.81-.25-2.22,4.61-2.19,4.79-2.58-1.43-7.76-10.44-15.64-18.23-10.85.98,2.41,1.63,4.72,1.64,7.32.01,2.96-1.13,6.77-2.9,9.17-.67.9-1.71,2.41-2.99,1.46-1.8-1.35-.03-2.55.67-3.7,4.96-8.17.01-20.58-10.35-19.54-9.01.91-15.71,9.5-11.8,18.24ZM843.04,173.4c-1.1-1.92-3.55-2.58-5.47-1.48-1.92,1.1-2.58,3.55-1.47,5.47s3.55,2.58,5.47,1.48c1.92-1.1,2.58-3.55,1.47-5.47ZM839.71,190.07c-1.1-1.92-3.55-2.58-5.47-1.48-1.92,1.1-2.58,3.55-1.47,5.47,1.1,1.92,3.55,2.58,5.47,1.48,1.92-1.1,2.58-3.55,1.47-5.47ZM867.28,184.41c-.49.49-.6,1.22-.27,1.83,3.46,5.14,6.05,11.64,9.56,16.65.45.64.83.99,1.66.89l17.69-10.17.33-1.23-10.17-17.69-1.23-.33-17.58,10.05ZM848.28,208.19c-1.32-2.29-4.24-3.08-6.54-1.77-2.29,1.32-3.08,4.24-1.76,6.54,1.32,2.29,4.24,3.08,6.54,1.77s3.08-4.24,1.76-6.54ZM859.64,224.72c-1.1-1.92-3.55-2.58-5.47-1.48-1.92,1.1-2.58,3.55-1.48,5.47,1.1,1.92,3.55,2.58,5.47,1.48,1.92-1.1,2.58-3.55,1.48-5.47ZM875.72,230.23c-1.1-1.92-3.55-2.58-5.47-1.48-1.92,1.1-2.58,3.55-1.47,5.47s3.55,2.58,5.47,1.48,2.58-3.55,1.47-5.47ZM893.77,232.77c-1.1-1.92-3.55-2.58-5.47-1.48-1.92,1.1-2.58,3.55-1.47,5.47s3.55,2.58,5.47,1.48,2.58-3.55,1.47-5.47Z"/>
    <path class="cls-3" d="M871.64,185.59l11.55-6.69c.73-.39,1.62-.15,2.05.55,1.8,3.72,4.68,7.39,6.39,11.1.42.92.42,1.57-.46,2.22-3.72,1.8-7.39,4.68-11.1,6.38-.92.42-1.57.42-2.22-.46-2.4-3.25-4.12-7.89-6.48-11.27-.33-.61-.22-1.34.27-1.83ZM875,187.3l4.78,8.32,8.32-4.78-4.78-8.32-8.32,4.78Z"/>
  </g>
  <g>
    <path class="cls-3" d="M61.63,307.65c0-1.68.46-3.32,1.38-4.91.92-1.59,2.37-3.05,4.34-4.37,1.97-1.32,4.49-2.47,7.55-3.43,3.06-.96,6.71-1.68,10.95-2.14v21.78h9.06v4.53h-11.33c-.46-.29-.85-.62-1.17-.98-.31-.36-.58-.68-.79-.98-.21-.33-.38-.67-.5-1.01-.21.55-.63,1.05-1.26,1.51-.55.38-1.33.71-2.36,1.01-1.03.29-2.42.44-4.19.44-4.03,0-6.99-1.02-8.88-3.05-1.89-2.03-2.83-4.84-2.83-8.4ZM66.85,284.73c0-1.01.33-1.85,1.01-2.52s1.49-1.01,2.46-1.01,1.77.34,2.42,1.01c.65.67.98,1.51.98,2.52s-.33,1.76-.98,2.39c-.65.63-1.46.94-2.42.94s-1.78-.31-2.46-.94c-.67-.63-1.01-1.43-1.01-2.39ZM67.04,307.71c0,1.47.18,2.65.54,3.56.36.9.81,1.6,1.35,2.08.54.48,1.16.81,1.86.98.69.17,1.37.25,2.05.25h8.18v-16.3c-2.56.46-4.73,1.03-6.52,1.7-1.78.67-3.22,1.42-4.31,2.23-1.09.82-1.89,1.69-2.39,2.61s-.76,1.89-.76,2.9ZM77.18,284.73c0-1.01.33-1.85,1.01-2.52s1.49-1.01,2.46-1.01,1.77.34,2.42,1.01c.65.67.98,1.51.98,2.52s-.33,1.76-.98,2.39c-.65.63-1.46.94-2.42.94s-1.78-.31-2.46-.94c-.67-.63-1.01-1.43-1.01-2.39Z"/>
    <path class="cls-3" d="M101.41,314.57v-35.88l4.85-1.39v41.8h-13.22v-4.53h8.37Z"/>
    <path class="cls-3" d="M108.27,269.81c1.09.59,2.74.99,4.94,1.2,2.2.21,4.63.08,7.27-.38.71-.13,1.47-.26,2.27-.41.8-.15,1.55-.28,2.27-.41,3.69-.67,6.71-.68,9.06-.03,2.35.65,4.2,2,5.54,4.06-1.05-.59-2.62-1.01-4.72-1.26-2.1-.25-4.47-.15-7.11.32-.84.17-1.7.36-2.58.57-.88.21-1.74.38-2.58.5-3.48.59-6.43.55-8.84-.13-2.41-.67-4.25-2.01-5.51-4.03ZM112.99,277.87c1.05.96,2.32,2.04,3.81,3.21,1.49,1.18,3.02,2.45,4.59,3.81,1.57,1.36,3.15,2.8,4.72,4.31,1.57,1.51,2.99,3.08,4.25,4.72.08-.08.23-.3.44-.66.21-.36.43-.79.66-1.29.23-.5.43-1.05.6-1.64.17-.59.25-1.13.25-1.64v-10.01l4.85-1.39v11.58c0,3.36-1.26,6.48-3.78,9.38,3.48,5.37,5.22,10.16,5.22,14.35v6.48h-26.63v-7.49c1.55-1.01,3.09-2.13,4.63-3.37,1.53-1.24,2.97-2.46,4.31-3.68,1.34-1.22,2.57-2.38,3.68-3.49s2.02-2.02,2.74-2.74c-1.18-1.64-2.51-3.2-4-4.69-1.49-1.49-3.01-2.9-4.56-4.22-1.55-1.32-3.06-2.54-4.53-3.65-1.47-1.11-2.75-2.11-3.84-2.99l2.58-4.91ZM134.08,314.57c0-.92-.1-1.93-.32-3.02s-.5-2.17-.88-3.24c-.38-1.07-.83-2.11-1.35-3.12-.53-1.01-1.1-1.89-1.73-2.64-.88.88-1.84,1.87-2.86,2.96-1.03,1.09-2.12,2.18-3.27,3.27-1.16,1.09-2.34,2.14-3.56,3.15-1.22,1.01-2.43,1.89-3.65,2.64h17.63Z"/>
    <path class="cls-3" d="M145.04,278.69l4.85-1.39v41.8h-4.85v-40.41Z"/>
    <path class="cls-3" d="M163.54,328.98c1.93-.13,3.69-.57,5.29-1.32.67-.29,1.34-.68,2.01-1.16.67-.48,1.29-1.07,1.86-1.76.57-.69,1.06-1.5,1.48-2.42.42-.92.69-1.99.82-3.21h-7.11c-3.82,0-6.67-.85-8.56-2.55-1.89-1.7-2.83-4.33-2.83-7.9,0-1.64.4-3.26,1.2-4.88.8-1.61,2.08-3.12,3.84-4.5s4.02-2.6,6.77-3.65c2.75-1.05,6.07-1.85,9.98-2.39.59,3.57,1.07,7.51,1.45,11.83s.48,9,.32,14.04c-.04,1.01-.29,2.28-.76,3.81-.46,1.53-1.26,3.02-2.39,4.47-1.13,1.45-2.66,2.75-4.59,3.9-1.93,1.15-4.39,1.86-7.36,2.11l-1.39-4.41ZM175.12,314.57c0-.38-.01-.76-.03-1.13-.02-.38-.03-.76-.03-1.13,0-1.01-.02-2.09-.06-3.24-.04-1.15-.11-2.32-.19-3.49-.08-1.17-.18-2.35-.28-3.52s-.22-2.27-.35-3.27c-4.41,1.05-7.59,2.36-9.54,3.93-1.95,1.57-2.97,3.52-3.05,5.82,0,.63.07,1.29.22,1.98.15.69.43,1.34.85,1.95.42.61.96,1.11,1.64,1.51.67.4,1.55.6,2.64.6h8.18Z"/>
    <path class="cls-3" d="M217.61,328.61c-1.93,0-3.87-.33-5.82-.98-1.95-.65-3.7-1.64-5.26-2.96-1.55-1.32-2.81-2.98-3.78-4.97-.97-1.99-1.45-4.35-1.45-7.08,0-1.8.18-3.42.53-4.85s.79-2.7,1.29-3.81c.5-1.11,1.04-2.09,1.6-2.93.57-.84,1.08-1.61,1.54-2.33h3.71c-.38.84-.8,1.7-1.26,2.58-.46.88-.89,1.78-1.29,2.71s-.73,1.85-1.01,2.77c-.27.92-.41,1.83-.41,2.71,0,1.3.13,2.8.38,4.5.25,1.7.82,3.3,1.7,4.81.88,1.51,2.15,2.78,3.81,3.81,1.66,1.03,3.89,1.54,6.7,1.54h1.07c1.85,0,3.45-.34,4.82-1.01,1.36-.67,2.51-1.6,3.43-2.77.92-1.18,1.61-2.54,2.08-4.09.46-1.55.69-3.21.69-4.97.04-2.73-.12-5.51-.47-8.34-.36-2.83-.85-5.59-1.48-8.28l5.04-1.64c1.26,5.92,1.89,11.79,1.89,17.62,0,3.4-.46,6.24-1.38,8.53-.92,2.29-2.15,4.13-3.68,5.54-1.53,1.41-3.29,2.4-5.29,2.99-1.99.59-4.08.88-6.26.88h-1.45ZM215.22,288.32c0-1.01.33-1.85,1.01-2.52s1.49-1.01,2.46-1.01,1.77.34,2.42,1.01c.65.67.98,1.51.98,2.52s-.33,1.76-.98,2.39c-.65.63-1.46.95-2.42.95s-1.78-.32-2.46-.95c-.67-.63-1.01-1.43-1.01-2.39Z"/>
    <path class="cls-3" d="M244.12,278.69l4.85-1.39v37.27h7.05v4.53h-11.9v-40.41Z"/>
    <path class="cls-3" d="M264.2,314.57v-20.77l4.85-1.38v22.16h9.44v-20.77l4.85-1.38v22.16h9.51v-20.77l4.85-1.38v22.16h9v4.53h-52.56v-4.53h10.07Z"/>
    <path class="cls-3" d="M319.02,314.57v-20.77l4.85-1.38v26.69h-19.07v-4.53h14.23ZM311.72,284.73c0-1.01.33-1.85,1.01-2.52s1.49-1.01,2.46-1.01,1.77.34,2.42,1.01c.65.67.98,1.51.98,2.52s-.33,1.76-.98,2.39c-.65.63-1.46.94-2.42.94s-1.78-.31-2.46-.94c-.67-.63-1.01-1.43-1.01-2.39Z"/>
    <path class="cls-3" d="M330.86,277.87c1.05.96,2.32,2.04,3.81,3.21,1.49,1.18,3.02,2.45,4.59,3.81,1.57,1.36,3.15,2.8,4.72,4.31,1.57,1.51,2.99,3.08,4.25,4.72.08-.08.23-.3.44-.66.21-.36.43-.79.66-1.29.23-.5.43-1.05.6-1.64.17-.59.25-1.13.25-1.64v-10.01l4.85-1.39v11.58c0,3.36-1.26,6.48-3.78,9.38,3.48,5.37,5.22,10.16,5.22,14.35v6.48h-26.63v-7.49c1.55-1.01,3.09-2.13,4.63-3.37,1.53-1.24,2.97-2.46,4.31-3.68,1.34-1.22,2.57-2.38,3.68-3.49s2.02-2.02,2.74-2.74c-1.18-1.64-2.51-3.2-4-4.69-1.49-1.49-3.01-2.9-4.56-4.22-1.55-1.32-3.06-2.54-4.53-3.65-1.47-1.11-2.75-2.11-3.84-2.99l2.58-4.91ZM351.95,314.57c0-.92-.1-1.93-.32-3.02s-.5-2.17-.88-3.24c-.38-1.07-.83-2.11-1.35-3.12-.53-1.01-1.1-1.89-1.73-2.64-.88.88-1.84,1.87-2.86,2.96-1.03,1.09-2.12,2.18-3.27,3.27-1.16,1.09-2.34,2.14-3.56,3.15-1.22,1.01-2.43,1.89-3.65,2.64h17.63Z"/>
    <path class="cls-3" d="M362.9,278.69l4.85-1.39v41.8h-4.85v-40.41Z"/>
    <path class="cls-2" d="M407.34,328.61c-2.48,0-4.71-.4-6.7-1.2-1.99-.8-3.69-1.83-5.1-3.08s-2.5-2.68-3.27-4.25c-.78-1.57-1.16-3.14-1.16-4.69,0-1.93.15-3.64.44-5.13.29-1.49.67-2.8,1.13-3.93.46-1.13.96-2.13,1.51-2.99.54-.86,1.07-1.65,1.57-2.36h3.78c-.92,1.72-1.74,3.56-2.46,5.51-.71,1.95-1.07,3.87-1.07,5.76,0,4.03,1.02,6.97,3.05,8.81,2.04,1.85,4.82,2.77,8.34,2.77s6.5-.32,8.44-.94c1.93-.63,3.3-1.43,4.12-2.39.82-.97,1.26-2.02,1.32-3.18.06-1.15.09-2.25.09-3.3,0-.5-.34-.76-1.01-.76h-4.53c-1.64,0-2.99-.06-4.06-.19-1.07-.13-1.92-.35-2.55-.66-.63-.32-1.07-.76-1.32-1.32-.25-.57-.38-1.29-.38-2.17,0-1.64.32-3.41.97-5.32s1.64-3.67,2.96-5.29c1.32-1.61,3.01-2.96,5.07-4.03,2.06-1.07,4.51-1.6,7.36-1.6,1.89,0,3.53.36,4.91,1.07,1.38.72,2.57,1.66,3.56,2.83.99,1.18,1.79,2.53,2.42,4.06.63,1.53,1.14,3.11,1.54,4.72.4,1.62.7,3.23.91,4.85.21,1.62.36,3.07.44,4.38h6.17v4.53h-11.14c0-3.44-.16-6.39-.47-8.84s-.73-4.5-1.26-6.14c-.52-1.64-1.12-2.94-1.79-3.9-.67-.96-1.35-1.7-2.05-2.2-.69-.5-1.37-.82-2.05-.94-.67-.13-1.26-.19-1.76-.19-1.22,0-2.45.22-3.68.66-1.24.44-2.36,1.08-3.37,1.92-1.01.84-1.83,1.86-2.46,3.05-.63,1.2-.94,2.55-.94,4.06,0,.42.09.88.28,1.38.19.5.62.76,1.29.76h7.18c.63,0,1.22.04,1.76.13.55.08,1.02.29,1.42.63s.71.87.94,1.6c.23.73.35,1.73.35,2.99,0,2.85-.37,5.21-1.1,7.08s-1.86,3.35-3.37,4.44c-1.51,1.09-3.45,1.87-5.82,2.33-2.37.46-5.19.69-8.47.69ZM400.54,336.91c0-1.01.34-1.85,1.01-2.52.67-.67,1.49-1.01,2.45-1.01s1.77.34,2.42,1.01.98,1.51.98,2.52-.32,1.76-.98,2.39c-.65.63-1.46.94-2.42.94s-1.78-.32-2.45-.94c-.67-.63-1.01-1.43-1.01-2.39ZM410.86,336.91c0-1.01.34-1.85,1.01-2.52.67-.67,1.49-1.01,2.45-1.01s1.77.34,2.42,1.01.98,1.51.98,2.52-.32,1.76-.98,2.39c-.65.63-1.46.94-2.42.94s-1.78-.32-2.45-.94c-.67-.63-1.01-1.43-1.01-2.39Z"/>
    <path class="cls-2" d="M441.02,319.1v-4.53h10.83c-2.35-1.47-4.01-3.15-4.97-5.04s-1.45-3.69-1.45-5.41.28-3.38.85-4.85c.57-1.47,1.4-2.74,2.49-3.81,1.09-1.07,2.45-1.9,4.09-2.49,1.64-.59,3.5-.88,5.6-.88s4.1.29,5.76.88c1.66.59,3.04,1.42,4.16,2.49,1.11,1.07,1.95,2.34,2.52,3.81.57,1.47.85,3.08.85,4.85,0,.84-.13,1.75-.38,2.74-.25.99-.64,1.95-1.16,2.9-.53.94-1.19,1.84-1.98,2.68-.8.84-1.74,1.55-2.83,2.14h13.09v4.53h-37.45ZM458.39,296.38c-1.51,0-2.78.18-3.81.54-1.03.36-1.87.84-2.52,1.45-.65.61-1.12,1.3-1.42,2.08-.29.78-.44,1.56-.44,2.36,0,2.48.63,4.72,1.89,6.74,1.26,2.01,3.36,3.44,6.3,4.28,2.98-.8,5.14-2.2,6.48-4.22,1.34-2.01,2.01-4.28,2.01-6.8,0-.75-.15-1.51-.44-2.27-.29-.76-.77-1.45-1.42-2.08-.65-.63-1.52-1.13-2.61-1.51s-2.43-.57-4.03-.57ZM450.27,284.79c0-1.01.34-1.85,1.01-2.52s1.49-1.01,2.45-1.01,1.77.34,2.42,1.01c.65.67.98,1.51.98,2.52s-.32,1.76-.98,2.39c-.65.63-1.46.94-2.42.94s-1.78-.31-2.45-.94c-.67-.63-1.01-1.43-1.01-2.39ZM460.59,284.79c0-1.01.34-1.85,1.01-2.52.67-.67,1.49-1.01,2.46-1.01s1.77.34,2.42,1.01c.65.67.98,1.51.98,2.52s-.33,1.76-.98,2.39c-.65.63-1.46.94-2.42.94s-1.78-.31-2.46-.94c-.67-.63-1.01-1.43-1.01-2.39Z"/>
    <path class="cls-2" d="M488.42,314.57v-20.77l4.85-1.38v22.16h10.2v4.53h-26.88v-4.53h11.83ZM482.31,284.79c0-1.01.34-1.85,1.01-2.52.67-.67,1.49-1.01,2.46-1.01s1.77.34,2.42,1.01c.65.67.98,1.51.98,2.52s-.33,1.76-.98,2.39c-.65.63-1.46.94-2.42.94s-1.78-.31-2.46-.94c-.67-.63-1.01-1.43-1.01-2.39ZM492.63,284.79c0-1.01.33-1.85,1.01-2.52s1.49-1.01,2.46-1.01,1.77.34,2.42,1.01c.65.67.98,1.51.98,2.52s-.33,1.76-.98,2.39c-.65.63-1.46.94-2.42.94s-1.78-.31-2.46-.94c-.67-.63-1.01-1.43-1.01-2.39Z"/>
    <path class="cls-2" d="M514.79,314.57h8.31v4.53h-21.53v-4.53h8.37v-35.88l4.85-1.39v37.27Z"/>
    <path class="cls-2" d="M535.44,314.57v-20.77l4.85-1.38v26.69h-19.07v-4.53h14.23ZM522.85,328.04c0-1.01.33-1.85,1.01-2.52.67-.67,1.49-1.01,2.46-1.01s1.77.33,2.42,1.01c.65.67.97,1.51.97,2.52s-.32,1.76-.97,2.39c-.65.63-1.46.94-2.42.94s-1.78-.31-2.46-.94c-.67-.63-1.01-1.43-1.01-2.39ZM533.17,328.04c0-1.01.34-1.85,1.01-2.52.67-.67,1.49-1.01,2.45-1.01s1.77.33,2.42,1.01c.65.67.97,1.51.97,2.52s-.32,1.76-.97,2.39c-.65.63-1.46.94-2.42.94s-1.78-.31-2.45-.94c-.67-.63-1.01-1.43-1.01-2.39Z"/>
    <path class="cls-2" d="M614.63,314.57v4.53h-39.15c-1.76,0-3.4-.15-4.91-.44-1.51-.29-2.83-.78-3.97-1.45-1.13-.67-2.01-1.55-2.64-2.64-.63-1.09-.94-2.41-.94-3.97,0-2.35.22-4.37.66-6.07s.96-3.16,1.57-4.38c.61-1.22,1.25-2.28,1.92-3.18.67-.9,1.24-1.75,1.7-2.55h4.41c-1.47,2.35-2.67,4.72-3.62,7.11-.94,2.39-1.44,4.55-1.48,6.48-.04,1.93.47,3.51,1.54,4.72,1.07,1.22,2.93,1.83,5.57,1.83h28.64v-20.77l4.85-1.38v22.16h5.85ZM579.5,284.73c0-1.01.33-1.85,1.01-2.52s1.49-1.01,2.46-1.01,1.77.34,2.42,1.01c.65.67.98,1.51.98,2.52s-.33,1.76-.98,2.39c-.65.63-1.46.94-2.42.94s-1.78-.31-2.46-.94c-.67-.63-1.01-1.43-1.01-2.39ZM584.54,276.17c0-1.01.34-1.85,1.01-2.52s1.49-1.01,2.45-1.01,1.77.34,2.42,1.01c.65.67.98,1.51.98,2.52s-.32,1.76-.98,2.39c-.65.63-1.46.94-2.42.94s-1.78-.31-2.45-.94c-.67-.63-1.01-1.43-1.01-2.39ZM589.83,284.73c0-1.01.33-1.85,1.01-2.52s1.49-1.01,2.46-1.01,1.77.34,2.42,1.01c.65.67.97,1.51.97,2.52s-.32,1.76-.97,2.39c-.65.63-1.46.94-2.42.94s-1.78-.31-2.46-.94c-.67-.63-1.01-1.43-1.01-2.39Z"/>
    <path class="cls-2" d="M624.57,314.57v-20.77l4.85-1.38v22.16h10.2v4.53h-26.88v-4.53h11.83ZM618.15,328.04c0-1.01.34-1.85,1.01-2.52.67-.67,1.49-1.01,2.45-1.01s1.77.33,2.42,1.01c.65.67.98,1.51.98,2.52s-.32,1.76-.98,2.39c-.65.63-1.46.94-2.42.94s-1.78-.31-2.45-.94c-.67-.63-1.01-1.43-1.01-2.39ZM628.47,328.04c0-1.01.34-1.85,1.01-2.52.67-.67,1.49-1.01,2.45-1.01s1.77.33,2.42,1.01c.65.67.98,1.51.98,2.52s-.32,1.76-.98,2.39c-.65.63-1.46.94-2.42.94s-1.78-.31-2.45-.94c-.67-.63-1.01-1.43-1.01-2.39Z"/>
    <path class="cls-2" d="M678.39,319.1h-40.6l-.06-4.53h31.6c-1.22-2.48-2.39-4.75-3.52-6.83-1.13-2.08-2.24-3.87-3.3-5.38-1.07-1.51-2.14-2.7-3.21-3.56-1.07-.86-2.17-1.29-3.3-1.29s-2.2.44-3.34,1.32c-1.13.88-2.24,1.99-3.34,3.34l-3.21-2.9c.8-.88,1.63-1.73,2.49-2.55s1.77-1.55,2.74-2.2c.96-.65,1.98-1.17,3.05-1.54,1.07-.38,2.23-.57,3.49-.57,1.39,0,2.66.43,3.84,1.29,1.17.86,2.35,2.11,3.52,3.75s2.44,3.65,3.81,6.04c1.36,2.39,2.93,5.12,4.69,8.18.59,1.01,1.28,1.74,2.08,2.2.8.46,1.66.69,2.58.69v4.53Z"/>
  </g>
  <g>
    <path class="cls-3" d="M83.99,241.75c-8.21,0-15.45-1.18-21.73-3.54-6.28-2.36-11.56-5.44-15.85-9.23-4.29-3.79-7.52-8.02-9.7-12.68-2.18-4.66-3.26-9.3-3.26-13.9,0-6.96.65-12.96,1.96-18,1.31-5.04,2.86-9.35,4.66-12.96,1.8-3.6,3.7-6.74,5.69-9.42,1.99-2.67,3.67-5.19,5.04-7.55h14.36c-3.23,5.35-6.03,11.5-8.39,18.46-2.36,6.97-3.54,13.68-3.54,20.14,0,3.36.56,6.65,1.68,9.89,1.12,3.23,2.89,6.12,5.32,8.67,2.42,2.55,5.53,4.6,9.33,6.16,3.79,1.55,8.3,2.33,13.52,2.33s9.51-.59,13.62-1.77c4.1-1.18,7.65-2.98,10.63-5.41,2.98-2.42,5.28-5.47,6.9-9.14,1.61-3.67,2.43-7.93,2.43-12.78v-111.72l23.69-6.71v108.37c0,10.82-1.24,20.05-3.73,27.7-2.49,7.65-6.13,13.93-10.91,18.84-4.79,4.91-10.7,8.52-17.72,10.82-7.03,2.3-15.02,3.45-23.97,3.45Z"/>
    <path class="cls-3" d="M167.18,79.29l23.69-6.71v106.13h20.89v20.33h-44.58v-119.74Z"/>
    <path class="cls-3" d="M206.16,178.7h35.06v-54.65l23.69-6.71v61.36h30.03v20.33h-88.78v-20.33ZM237.68,93.28c0-3.98,1.4-7.37,4.2-10.16,2.8-2.8,6.18-4.2,10.16-4.2s7.12,1.4,9.79,4.2c2.67,2.8,4.01,6.19,4.01,10.16s-1.34,7.12-4.01,9.79-5.94,4.01-9.79,4.01-7.37-1.33-10.16-4.01c-2.8-2.67-4.2-5.94-4.2-9.79Z"/>
    <path class="cls-3" d="M289.35,178.7h35.06v-54.65l23.69-6.71v61.36h30.03v20.33h-88.78v-20.33ZM302.96,229.44c0-3.98,1.4-7.37,4.2-10.16,2.8-2.8,6.18-4.2,10.17-4.2s7.12,1.4,9.79,4.2c2.67,2.8,4.01,6.18,4.01,10.16s-1.34,7.12-4.01,9.79c-2.68,2.67-5.94,4.01-9.79,4.01s-7.37-1.34-10.17-4.01c-2.8-2.68-4.2-5.94-4.2-9.79ZM339.89,229.44c0-3.98,1.4-7.37,4.2-10.16,2.8-2.8,6.18-4.2,10.16-4.2s7.12,1.4,9.79,4.2c2.67,2.8,4.01,6.18,4.01,10.16s-1.34,7.12-4.01,9.79c-2.68,2.67-5.94,4.01-9.79,4.01s-7.37-1.34-10.16-4.01c-2.8-2.68-4.2-5.94-4.2-9.79Z"/>
    <path class="cls-3" d="M446.02,210.41c-1.62,0-3.36-.44-5.22-1.31-3.73-1.49-8.8-3.79-15.2-6.9-6.4-3.11-14.15-6.96-23.22-11.56-2.12,3.73-4.54,6.16-7.27,7.27-2.12.75-5.6,1.12-10.45,1.12h-12.12v-20.33h13.8c3.73-8.58,7.65-16.38,11.75-23.41,4.1-7.02,8.17-12.99,12.22-17.91,4.04-4.91,7.96-8.73,11.75-11.47,3.79-2.73,7.3-4.1,10.54-4.1,8.21,0,15.04,5.85,20.52,17.53,1.61,3.48,3.23,7.87,4.85,13.15,1.61,5.29,3.36,11.66,5.22,19.12.49,2.74.87,5.1,1.12,7.09h19.21v20.33h-25.37c-4.23,7.58-8.27,11.38-12.12,11.38ZM443.59,185.98c-1.49-11.19-3.45-20.24-5.87-27.14s-5.44-10.35-9.05-10.35c-1.24,0-3.42,1.43-6.53,4.29-1.87,1.87-3.82,4.45-5.88,7.74-2.05,3.3-3.76,6.25-5.13,8.86,5.22,3.98,10.63,7.37,16.23,10.16,5.6,2.8,11,4.94,16.23,6.44Z"/>
    <path class="cls-3" d="M479.41,178.7h67.52v20.33h-67.52v-20.33Z"/>
    <path class="cls-3" d="M542.26,178.7h35.06v-54.65l23.69-6.71v61.36h30.03v20.33h-88.78v-20.33ZM555.88,229.44c0-3.98,1.4-7.37,4.2-10.16,2.8-2.8,6.18-4.2,10.17-4.2s7.12,1.4,9.79,4.2c2.67,2.8,4.01,6.18,4.01,10.16s-1.34,7.12-4.01,9.79c-2.68,2.67-5.94,4.01-9.79,4.01s-7.37-1.34-10.17-4.01c-2.8-2.68-4.2-5.94-4.2-9.79ZM592.81,229.44c0-3.98,1.4-7.37,4.2-10.16,2.8-2.8,6.18-4.2,10.16-4.2s7.12,1.4,9.79,4.2c2.67,2.8,4.01,6.18,4.01,10.16s-1.34,7.12-4.01,9.79c-2.68,2.67-5.94,4.01-9.79,4.01s-7.37-1.34-10.16-4.01c-2.8-2.68-4.2-5.94-4.2-9.79Z"/>
    <path class="cls-3" d="M625.45,178.7h24.81v-99.41l23.69-6.71v126.46h-48.49v-20.33Z"/>
  </g>
</svg>